<?xml version="1.0" encoding="utf-8"?>
<!-- Generator: Adobe Illustrator 23.0.1, SVG Export Plug-In . SVG Version: 6.00 Build 0)  -->
<svg version="1.1" id="Layer_1" xmlns="http://www.w3.org/2000/svg" xmlns:xlink="http://www.w3.org/1999/xlink" x="0px" y="0px"
	 viewBox="0 0 397.89 347.87" style="enable-background:new 0 0 397.89 347.87;" xml:space="preserve">
<style type="text/css">
	.st0{fill:#1A3F71;}
	.st1{fill:#F68922;}
</style>
<g>
	
		<rect x="117.52" y="191.21" transform="matrix(0.7071 -0.7071 0.7071 0.7071 -132.6238 171.0628)" class="st0" width="45.31" height="108.82"/>
	
		<rect x="85.22" y="176.74" transform="matrix(0.7071 -0.7071 0.7071 0.7071 -99.5474 158.4534)" class="st0" width="112.56" height="45.31"/>
	
		<rect x="27.78" y="105.34" transform="matrix(0.7071 -0.7071 0.7071 0.7071 -56.0274 120.7361)" class="st0" width="179.9" height="45.31"/>
	<g>
		<path class="st1" d="M249.25,240.08c0-0.74-0.28-1.34-0.84-1.81s-1.63-0.88-3.2-1.23c-2.17-0.47-3.84-1.12-5-1.96
			s-1.75-1.97-1.75-3.37c0-1.5,0.64-2.78,1.92-3.85s2.93-1.6,4.97-1.6c2.09,0,3.78,0.57,5.08,1.7c1.3,1.14,1.91,2.46,1.86,3.97
			l-0.03,0.1h-3.2c0-0.8-0.35-1.52-1.05-2.16c-0.7-0.65-1.58-0.97-2.65-0.97c-1.18,0-2.07,0.27-2.65,0.8
			c-0.59,0.53-0.88,1.17-0.88,1.91c0,0.73,0.25,1.29,0.76,1.69s1.55,0.76,3.13,1.09c2.26,0.48,3.98,1.15,5.15,2.03
			c1.17,0.88,1.76,2.02,1.76,3.43c0,1.64-0.66,2.97-1.99,4.01c-1.32,1.03-3.05,1.55-5.19,1.55c-2.35,0-4.2-0.6-5.56-1.79
			c-1.35-1.19-1.99-2.59-1.93-4.18l0.03-0.1h3.2c0.06,1.19,0.5,2.07,1.33,2.62s1.8,0.83,2.91,0.83c1.19,0,2.13-0.25,2.8-0.76
			C248.92,241.51,249.25,240.86,249.25,240.08z"/>
		<path class="st1" d="M256,235.65c0-2.73,0.74-4.97,2.22-6.74s3.48-2.65,6.02-2.65c2.56,0,4.58,0.88,6.06,2.64s2.22,4.01,2.22,6.75
			v0.37c0,2.75-0.74,5-2.22,6.75s-3.49,2.62-6.03,2.62c-2.55,0-4.56-0.88-6.04-2.63c-1.48-1.76-2.22-4-2.22-6.74L256,235.65
			L256,235.65z M259.36,236.02c0,1.95,0.41,3.57,1.24,4.84c0.82,1.27,2.05,1.91,3.67,1.91c1.6,0,2.82-0.64,3.65-1.91
			s1.24-2.89,1.24-4.84v-0.37c0-1.93-0.42-3.54-1.25-4.82s-2.06-1.93-3.67-1.93c-1.6,0-2.82,0.64-3.64,1.93
			c-0.82,1.28-1.24,2.89-1.24,4.82L259.36,236.02L259.36,236.02z"/>
		<path class="st1" d="M278.02,245.04v-15.95h-2.88v-2.49h2.88v-2.34c0-1.97,0.51-3.49,1.54-4.56s2.46-1.61,4.3-1.61
			c0.39,0,0.78,0.03,1.17,0.09s0.83,0.15,1.3,0.26l-0.41,2.56c-0.2-0.05-0.45-0.09-0.74-0.12c-0.29-0.03-0.59-0.05-0.91-0.05
			c-0.98,0-1.7,0.29-2.18,0.88c-0.48,0.59-0.72,1.43-0.72,2.55v2.34h3.34v2.49h-3.34v15.95L278.02,245.04L278.02,245.04z"/>
		<path class="st1" d="M293.93,222.15v4.45h3.49v2.49h-3.49v11.2c0,0.86,0.18,1.47,0.54,1.82c0.36,0.35,0.83,0.53,1.42,0.53
			c0.19,0,0.41-0.03,0.65-0.08s0.44-0.1,0.6-0.16l0.46,2.3c-0.25,0.2-0.62,0.37-1.11,0.5s-0.97,0.2-1.45,0.2
			c-1.36,0-2.45-0.41-3.26-1.24c-0.81-0.82-1.21-2.12-1.21-3.88v-11.2h-2.93v-2.49h2.93v-4.45L293.93,222.15L293.93,222.15z"/>
		<path class="st1" d="M306.88,238.32l0.43,2.37h0.1l0.44-2.37l3.68-11.73h2.69l3.7,11.73l0.48,2.64h0.1l0.55-2.64l2.73-11.73h3.51
			l-5.35,18.44h-2.71l-3.65-11.23l-0.7-2.93h-0.1l-0.65,2.93l-3.58,11.23h-2.71l-5.35-18.44h3.49L306.88,238.32z"/>
		<path class="st1" d="M339.91,245.04c-0.11-0.56-0.2-1.05-0.26-1.47c-0.06-0.43-0.1-0.85-0.11-1.29c-0.62,0.89-1.44,1.63-2.45,2.22
			c-1.01,0.6-2.09,0.89-3.25,0.89c-1.92,0-3.38-0.49-4.39-1.47s-1.51-2.34-1.51-4.07c0-1.76,0.71-3.14,2.14-4.13
			c1.43-0.99,3.36-1.49,5.8-1.49h3.65v-1.82c0-1.08-0.33-1.93-0.99-2.56s-1.59-0.95-2.8-0.95c-1.09,0-1.97,0.27-2.64,0.82
			s-1.01,1.2-1.01,1.96l-3.19,0.03l-0.03-0.1c-0.08-1.34,0.55-2.57,1.88-3.68c1.34-1.11,3.06-1.67,5.17-1.67
			c2.09,0,3.77,0.53,5.05,1.59c1.27,1.06,1.91,2.59,1.91,4.59v8.88c0,0.66,0.03,1.3,0.1,1.91c0.07,0.61,0.19,1.22,0.37,1.81
			L339.91,245.04L339.91,245.04z M334.34,242.59c1.22,0,2.31-0.31,3.29-0.94c0.98-0.62,1.61-1.34,1.91-2.15v-3h-3.77
			c-1.35,0-2.43,0.34-3.25,1.02c-0.81,0.68-1.22,1.48-1.22,2.4c0,0.82,0.26,1.47,0.77,1.94
			C332.58,242.35,333.34,242.59,334.34,242.59z"/>
		<path class="st1" d="M356.5,229.56l-1.72-0.1c-0.89,0-1.63,0.21-2.24,0.63c-0.61,0.42-1.08,1.01-1.41,1.77v13.18h-3.36V226.6h3
			l0.32,2.69c0.52-0.95,1.17-1.7,1.93-2.23c0.77-0.53,1.65-0.8,2.65-0.8c0.25,0,0.49,0.02,0.72,0.06c0.23,0.04,0.41,0.08,0.56,0.13
			L356.5,229.56z"/>
		<path class="st1" d="M367.3,245.4c-2.65,0-4.71-0.85-6.2-2.54c-1.48-1.69-2.22-3.92-2.22-6.68v-0.75c0-2.65,0.76-4.84,2.29-6.57
			s3.39-2.6,5.6-2.6c2.47,0,4.31,0.77,5.55,2.3c1.24,1.53,1.85,3.57,1.85,6.12v1.77h-11.79l-0.05,0.09c0,1.85,0.41,3.36,1.23,4.51
			c0.82,1.15,2.07,1.73,3.75,1.73c1.14,0,2.13-0.16,2.99-0.49c0.86-0.32,1.59-0.77,2.21-1.34l1.31,2.18
			c-0.66,0.64-1.53,1.17-2.61,1.61C370.13,245.18,368.82,245.4,367.3,245.4z M366.77,228.9c-1.17,0-2.14,0.45-2.91,1.35
			c-0.77,0.9-1.24,2.06-1.41,3.47l0.03,0.09h8.32v-0.27c0-1.34-0.33-2.45-0.99-3.32C369.17,229.34,368.15,228.9,366.77,228.9z"/>
	</g>
	<path class="st0" d="M217.21,160.95v-34.22H211v-5.34h6.21v-4.28c0-4.44,1.3-7.87,3.89-10.31c2.6-2.44,6.2-3.66,10.8-3.66
		c1.63,0,3.24,0.19,4.83,0.57c1.58,0.38,3.45,0.93,5.59,1.66l-1.24,5.85c-1.29-0.51-2.67-0.95-4.13-1.32
		c-1.46-0.37-2.96-0.55-4.5-0.55c-2.85,0-4.9,0.63-6.16,1.9c-1.26,1.27-1.88,3.22-1.88,5.85v4.28h7.86v5.34h-7.86v34.22
		L217.21,160.95L217.21,160.95z M245.83,210.29h-7.24v-82.31l7.24-6.58V210.29z"/>
	<path class="st0" d="M276.39,127.76l-3.69-0.22c-1.9,0-3.5,0.45-4.81,1.35c-1.3,0.9-2.31,2.17-3.02,3.8v28.26h-7.2V121.4h6.43
		l0.69,5.78c1.12-2.05,2.5-3.64,4.15-4.79c1.64-1.15,3.54-1.72,5.68-1.72c0.54,0,1.05,0.04,1.54,0.13c0.49,0.09,0.89,0.18,1.21,0.27
		L276.39,127.76z"/>
	<path class="st0" d="M304.41,150.31c0-1.58-0.6-2.88-1.81-3.87c-1.21-1-3.49-1.88-6.85-2.63c-4.66-1-8.23-2.4-10.73-4.2
		s-3.75-4.22-3.75-7.24c0-3.22,1.37-5.97,4.11-8.26s6.29-3.44,10.66-3.44c4.48,0,8.11,1.22,10.89,3.66
		c2.78,2.44,4.11,5.28,3.98,8.52l-0.07,0.22h-6.87c0-1.71-0.75-3.25-2.25-4.64c-1.5-1.39-3.39-2.08-5.68-2.08
		c-2.54,0-4.43,0.57-5.68,1.72c-1.26,1.15-1.88,2.51-1.88,4.09c0,1.56,0.54,2.77,1.63,3.62c1.08,0.85,3.32,1.63,6.71,2.34
		c4.85,1.02,8.53,2.47,11.04,4.35s3.76,4.33,3.76,7.35c0,3.51-1.42,6.37-4.26,8.59s-6.55,3.33-11.13,3.33
		c-5.04,0-9.02-1.28-11.92-3.84c-2.9-2.56-4.28-5.54-4.13-8.96l0.07-0.22h6.87c0.12,2.56,1.07,4.43,2.85,5.61s3.86,1.77,6.25,1.77
		c2.56,0,4.56-0.54,6.01-1.63C303.69,153.38,304.41,151.99,304.41,150.31z"/>
	<path class="st0" d="M329.33,111.85v9.54h7.49v5.34h-7.49v24.02c0,1.85,0.38,3.16,1.15,3.91c0.77,0.76,1.78,1.13,3.05,1.13
		c0.41,0,0.88-0.05,1.39-0.16c0.51-0.11,0.94-0.22,1.28-0.35l0.99,4.93c-0.54,0.44-1.33,0.8-2.38,1.08
		c-1.05,0.28-2.08,0.42-3.11,0.42c-2.92,0-5.25-0.88-6.98-2.65s-2.6-4.54-2.6-8.32v-24.02h-6.29v-5.34h6.29v-9.54h7.21V111.85z"/>
	<path class="st0" d="M264.77,210.29h-7.14v-39.22h7.14V210.29z"/>
	<path class="st0" d="M281.88,171.07l0.51,5.84c1.31-2.08,2.94-3.69,4.91-4.84s4.21-1.72,6.72-1.72c4.23,0,7.5,1.24,9.82,3.72
		s3.48,6.3,3.48,11.47v24.76h-7.14v-24.61c0-3.46-0.68-5.91-2.05-7.36c-1.37-1.45-3.45-2.17-6.25-2.17c-2.2,0-4.07,0.44-5.6,1.32
		c-1.54,0.88-2.75,2.12-3.64,3.72v29.11h-7.14v-39.22h6.38V171.07z"/>
	<path class="st0" d="M333.39,211.05c-5.63,0-10.02-1.8-13.18-5.4c-3.15-3.6-4.73-8.34-4.73-14.21v-1.59
		c0-5.63,1.63-10.29,4.88-13.97s7.22-5.53,11.91-5.53c5.24,0,9.18,1.63,11.8,4.89s3.93,7.6,3.93,13.01v3.77h-25.08l-0.11,0.18
		c0,3.94,0.87,7.14,2.61,9.59c1.74,2.45,4.4,3.68,7.97,3.68c2.42,0,4.54-0.34,6.36-1.03c1.82-0.69,3.39-1.64,4.69-2.85l2.79,4.64
		c-1.4,1.35-3.25,2.5-5.55,3.43C339.39,210.58,336.62,211.05,333.39,211.05z M332.26,175.96c-2.49,0-4.55,0.96-6.18,2.88
		s-2.63,4.38-2.99,7.38l0.07,0.18h17.69v-0.58c0-2.85-0.7-5.21-2.1-7.07C337.35,176.89,335.19,175.96,332.26,175.96z"/>
</g>
</svg>
